<svg xmlns="http://www.w3.org/2000/svg" version="1.1" xmlns:xlink="http://www.w3.org/1999/xlink" xmlns:svgjs="http://svgjs.com/svgjs" width="512" height="512" x="0" y="0" viewBox="0 0 512 512" style="enable-background:new 0 0 512 512" xml:space="preserve" class=""><g><path xmlns="http://www.w3.org/2000/svg" d="m442.53125 79.523438h59.46875c5.523438 0 10-4.476563 10-10v-59.523438c0-5.523438-4.476562-10-10-10h-59.46875c-5.523438 0-10 4.476562-10 10v19.761719h-136.796875v-19.761719c0-5.523438-4.476563-10-10-10h-59.46875c-5.523437 0-10 4.476562-10 10v19.761719h-136.796875v-19.761719c0-5.523438-4.476562-10-10-10h-59.46875c-5.523438 0-10 4.476562-10 10v59.523438c0 5.523437 4.476562 10 10 10h59.46875c5.523438 0 10-4.476563 10-10v-19.761719h83.1875c-29.292969 13.28125-55.703125 32.789062-77.222656 57.457031-33.742188 38.679688-53.25 87.625-55.503906 138.78125h-19.929688c-5.523438 0-10 4.476562-10 10v59.523438c0 5.523437 4.476562 10 10 10h59.46875c5.523438 0 10-4.476563 10-10v-59.523438c0-5.523438-4.476562-10-10-10h-19.515625c4.609375-94.238281 73.933594-174.484375 166.3125-192.523438v16.050782c0 5.523437 4.476563 10 10 10h59.46875c5.523437 0 10-4.476563 10-10v-16.050782c92.378906 18.039063 161.703125 98.285157 166.3125 192.523438h-19.515625c-5.523438 0-10 4.476562-10 10v59.523438c0 5.523437 4.476562 10 10 10h59.46875c5.523438 0 10-4.476563 10-10v-59.523438c0-5.523438-4.476562-10-10-10h-19.929688c-2.253906-51.15625-21.761718-100.101562-55.503906-138.78125-21.519531-24.667969-47.929687-44.175781-77.222656-57.457031h83.1875v19.765625c0 5.519531 4.476562 9.996094 10 9.996094zm-383.0625-20h-39.46875v-39.523438h39.46875zm0 246h-39.46875v-39.523438h39.46875zm432.53125 0h-39.46875v-39.523438h39.46875zm-216.265625-246h-39.46875v-39.523438h39.46875zm176.796875-39.523438h39.46875v39.523438h-39.46875zm0 0" fill="#000000" data-original="#000000" class=""></path><path xmlns="http://www.w3.org/2000/svg" d="m264.757812 110.175781c-1.757812-3.191406-5.113281-5.175781-8.757812-5.175781s-7 1.984375-8.757812 5.175781l-41.535157 75.40625c-2.664062 4.839844-.902343 10.921875 3.9375 13.582031 4.832031 2.664063 10.917969.90625 13.582031-3.933593l22.773438-41.347657v73.746094c-13.882812 4.28125-24 17.230469-24 32.5 0 18.746094 15.253906 34 34 34s34-15.253906 34-34c0-15.269531-10.117188-28.21875-24-32.5v-73.746094l68.605469 124.5625c-22.539063 22.796876-37.902344 52.039063-43.871094 83.554688h-69.46875c-5.972656-31.515625-21.335937-60.757812-43.871094-83.554688l11.460938-20.808593c2.664062-4.835938.902343-10.917969-3.933594-13.582031-4.835937-2.664063-10.921875-.90625-13.585937 3.933593l-15.15625 27.523438c-2.226563 4.039062-1.398438 9.082031 2.003906 12.199219 21.535156 19.722656 36.488281 45.847656 42.675781 74.289062h-9.3125c-16.542969 0-30 13.460938-30 30 0 11.671875 6.699219 21.796875 16.453125 26.753906v83.246094c0 5.523438 4.476562 10 10 10s10-4.476562 10-10v-80h116v80c0 5.523438 4.476562 10 10 10s10-4.476562 10-10v-83.246094c9.753906-4.957031 16.453125-15.085937 16.453125-26.753906 0-16.542969-13.457031-30-30-30h-9.3125c6.1875-28.445312 21.140625-54.566406 42.675781-74.292969 3.402344-3.117187 4.230469-8.15625 2.003906-12.199219zm-8.757812 163.953125c-7.71875 0-14-6.28125-14-14 0-7.722656 6.28125-14 14-14s14 6.277344 14 14c0 7.71875-6.28125 14-14 14zm74.453125 117.871094c0 5.515625-4.484375 10-10 10h-128.90625c-5.515625 0-10-4.484375-10-10s4.484375-10 10-10h128.90625c5.515625 0 10 4.484375 10 10zm0 0" fill="#000000" data-original="#000000" class=""></path><path xmlns="http://www.w3.org/2000/svg" d="m196.628906 232.121094c2.632813 0 5.210938-1.0625 7.070313-2.921875 1.859375-1.871094 2.929687-4.4375 2.929687-7.078125 0-2.632813-1.070312-5.199219-2.929687-7.070313-1.859375-1.859375-4.4375-2.929687-7.070313-2.929687-2.640625 0-5.21875 1.070312-7.078125 2.929687-1.859375 1.871094-2.921875 4.4375-2.921875 7.070313 0 2.640625 1.0625 5.207031 2.921875 7.078125 1.859375 1.859375 4.4375 2.921875 7.078125 2.921875zm0 0" fill="#000000" data-original="#000000" class=""></path></g></svg>