<svg xmlns="http://www.w3.org/2000/svg" viewBox="0 0 25 25"><defs><style>.cls-1{fill:#231f20;}</style></defs><g id="handshake"><path class="cls-1" d="M23.51,7a6.9,6.9,0,0,1-1.91-.33,6.85,6.85,0,0,1-1.86-1,3.25,3.25,0,0,0-3-.36l-5,2.21h0L8.14,7.08a2.27,2.27,0,0,0-1.31.21l-.25.12A5.78,5.78,0,0,1,4,8H1.5a.5.5,0,0,0-.5.5v9a.5.5,0,0,0,.5.5H4a5.09,5.09,0,0,1,2.66.75L8.7,20a3,3,0,0,0,1.56.44,3,3,0,0,0,1.92-.7L15.48,17h8a.5.5,0,0,0,.5-.5v-9A.51.51,0,0,0,23.51,7Zm-12,12a2,2,0,0,1-2.32.18L7.15,17.89A6.15,6.15,0,0,0,4,17H2V9H4a6.9,6.9,0,0,0,3-.69l.25-.12A1.32,1.32,0,0,1,8,8.07l2,.26-.65.29A1.73,1.73,0,0,0,9.8,12a14.2,14.2,0,0,0,3.06-.23,13.62,13.62,0,0,0,2.51-.73L15.93,15a.46.46,0,0,1-.17.43ZM23,16H16.62a1.51,1.51,0,0,0,.3-1.11l-.63-4.47a.5.5,0,0,0-.57-.43l-.09,0a.58.58,0,0,0-.32,0,12.84,12.84,0,0,1-2.63.79A13.67,13.67,0,0,1,9.79,11a.77.77,0,0,1-.8-.58.76.76,0,0,1,.6-.87l.1,0,7.42-3.28A2.44,2.44,0,0,1,18,6.14a2.36,2.36,0,0,1,1.18.39,7.61,7.61,0,0,0,2.12,1.09A7.64,7.64,0,0,0,23,8Z"/></g></svg>