<svg xmlns="http://www.w3.org/2000/svg" version="1.1" xmlns:xlink="http://www.w3.org/1999/xlink" xmlns:svgjs="http://svgjs.com/svgjs" width="512" height="512" x="0" y="0" viewBox="0 0 512 512" style="enable-background:new 0 0 512 512" xml:space="preserve" class=""><g><path xmlns="http://www.w3.org/2000/svg" d="m93.563 55.271c-18.654 0-33.83 15.171-33.83 33.817s15.176 33.817 33.83 33.817c18.669 0 33.858-15.171 33.858-33.817s-15.189-33.817-33.858-33.817zm0 47.466c-7.533 0-13.661-6.123-13.661-13.649s6.128-13.648 13.661-13.648c7.548 0 13.69 6.123 13.69 13.649s-6.142 13.648-13.69 13.648z" fill="#000000" data-original="#000000" class=""></path><path xmlns="http://www.w3.org/2000/svg" d="m389.364 55.271h-89.429c-18.654 0-33.83 15.171-33.83 33.817s15.176 33.817 33.83 33.817h89.429c18.654 0 33.83-15.171 33.83-33.817s-15.176-33.817-33.83-33.817zm0 47.466h-89.429c-7.533 0-13.661-6.123-13.661-13.649s6.129-13.649 13.661-13.649h89.429c7.533 0 13.661 6.123 13.661 13.649s-6.128 13.649-13.661 13.649z" fill="#000000" data-original="#000000" class=""></path><path xmlns="http://www.w3.org/2000/svg" d="m181.235 55.271c-18.654 0-33.83 15.171-33.83 33.817s15.176 33.817 33.83 33.817c18.669 0 33.858-15.171 33.858-33.817s-15.189-33.817-33.858-33.817zm0 47.466c-7.533 0-13.661-6.123-13.661-13.649s6.129-13.649 13.661-13.649c7.548 0 13.69 6.123 13.69 13.649s-6.142 13.649-13.69 13.649z" fill="#000000" data-original="#000000" class=""></path><path xmlns="http://www.w3.org/2000/svg" d="m164.792 222.444c-5.415-1.297-10.858 2.046-12.152 7.464l-20.006 83.718c-1.294 5.417 2.047 10.858 7.464 12.152.788.188 1.577.279 2.353.279 4.559 0 8.693-3.114 9.799-7.743l20.006-83.718c1.295-5.417-2.047-10.857-7.464-12.152z" fill="#000000" data-original="#000000" class=""></path><path xmlns="http://www.w3.org/2000/svg" d="m201.815 315.939c1.922 1.712 4.318 2.554 6.704 2.554 2.777 0 5.542-1.14 7.535-3.377l28.278-31.744c4.666-5.194 4.666-13.328.029-18.489l-28.308-31.777c-3.706-4.16-10.081-4.526-14.238-.823-4.16 3.705-4.528 10.08-.823 14.238l24.577 27.589-24.577 27.59c-3.704 4.16-3.336 10.535.823 14.239z" fill="#000000" data-original="#000000" class=""></path><path xmlns="http://www.w3.org/2000/svg" d="m103.076 232.284c-4.16-3.705-10.533-3.334-14.238.823l-28.275 31.741c-4.672 5.195-4.672 13.333-.032 18.492l28.308 31.777c1.993 2.238 4.757 3.377 7.535 3.377 2.386 0 4.783-.842 6.704-2.554 4.16-3.705 4.528-10.08.823-14.238l-24.577-27.589 24.577-27.59c3.703-4.16 3.335-10.535-.825-14.239z" fill="#000000" data-original="#000000" class=""></path><path xmlns="http://www.w3.org/2000/svg" d="m489.391 339.532h-3.744c-1.961-6.352-4.502-12.484-7.602-18.344l2.672-2.681c4.267-4.241 6.622-9.904 6.631-15.946.009-6.056-2.338-11.742-6.61-16.013l-5.206-5.203v-214.8c0-30.079-21.226-54.549-47.318-54.549h-380.896c-26.092 0-47.318 24.47-47.318 54.549v281.853c0 30.079 21.226 54.549 47.318 54.549h59.166c5.569 0 10.084-4.515 10.084-10.084s-4.515-10.084-10.084-10.084h-59.166c-14.716 0-27.149-15.745-27.149-34.38v-182.954h435.193v101.905c-1.149-.177-2.313-.293-3.498-.293-.012 0-.024 0-.035 0-6.042.01-11.705 2.362-15.913 6.593l-2.726 2.714c-5.983-3.161-12.214-5.732-18.639-7.695v-3.592c0-12.464-10.142-22.603-22.609-22.603h-18.249c-12.451 0-22.58 10.139-22.58 22.603v3.838c-6.304 1.981-12.391 4.53-18.209 7.626l-2.612-2.604c-4.242-4.263-9.906-6.617-15.948-6.626-.011 0-.022 0-.034 0-6.043 0-11.717 2.345-15.98 6.605l-12.893 12.887c-4.272 4.27-6.619 9.957-6.61 16.012.009 6.042 2.363 11.705 6.598 15.913l2.785 2.793c-3.023 5.77-5.506 11.789-7.427 18.009h-3.83c-12.452 0-22.581 10.126-22.581 22.574v18.267c0 .812.045 1.614.129 2.404h-58.675c-5.569 0-10.084 4.515-10.084 10.084s4.515 10.084 10.084 10.084h81.126 3.869c1.95 6.279 4.471 12.346 7.546 18.154l-2.725 2.713c-8.773 8.82-8.765 23.139.021 31.918l12.9 12.895c4.242 4.263 9.906 6.617 15.948 6.626h.033c6.044 0 11.718-2.345 15.981-6.606l2.701-2.699c5.86 3.089 11.953 5.613 18.225 7.552v3.903c0 12.464 10.129 22.603 22.581 22.603h18.277c12.451 0 22.58-10.139 22.58-22.603v-3.879c6.331-1.953 12.449-4.487 18.302-7.577l2.689 2.679c4.241 4.264 9.904 6.617 15.946 6.627h.035c6.043 0 11.717-2.345 15.988-6.613l12.865-12.887c4.267-4.241 6.622-9.904 6.631-15.946.009-6.056-2.338-11.742-6.611-16.013l-2.691-2.69c3.069-5.813 5.588-11.884 7.535-18.156h3.811c12.467 0 22.609-10.126 22.609-22.573v-18.267c.002-12.446-10.14-22.572-22.607-22.572zm-469.222-194.256v-78.731c0-18.635 12.433-34.38 27.149-34.38h380.896c14.716 0 27.149 15.745 27.149 34.38v78.732h-435.194zm471.662 235.097c0 1.281-1.14 2.404-2.441 2.404h-11.532c-4.702 0-8.78 3.249-9.83 7.832-2.178 9.505-5.919 18.519-11.12 26.794-2.505 3.985-1.92 9.173 1.41 12.5l8.16 8.155c.61.61.7 1.338.7 1.718-.001.454-.119 1.113-.708 1.697l-12.884 12.907c-.611.61-1.34.702-1.724.702-.001 0-.002 0-.002 0-.458 0-1.119-.119-1.71-.714l-8.19-8.156c-3.331-3.317-8.509-3.892-12.486-1.392-8.287 5.213-17.339 8.96-26.906 11.137-4.589 1.046-7.846 5.126-7.846 9.834v11.611c0 1.296-1.127 2.434-2.411 2.434h-18.277c-1.285 0-2.412-1.137-2.412-2.434v-11.64c0-4.712-3.264-8.797-7.86-9.836-9.445-2.136-18.481-5.877-26.855-11.117-1.65-1.033-3.504-1.537-5.347-1.537-2.605 0-5.187 1.007-7.132 2.953l-8.159 8.155c-.611.61-1.34.702-1.724.702-.001 0-.002 0-.003 0-.457 0-1.119-.119-1.698-.701l-12.921-12.915c-.905-.904-.895-2.506-.012-3.394l8.189-8.156c3.346-3.332 3.931-8.538 1.41-12.53-5.209-8.248-8.955-17.256-11.135-26.774-1.05-4.583-5.128-7.833-9.831-7.833h-11.59c-1.307 0-2.412-1.101-2.412-2.404v-18.267c0-1.303 1.105-2.405 2.412-2.405h11.561c4.707 0 8.789-3.257 9.834-7.846 2.152-9.457 5.85-18.428 10.991-26.666 2.482-3.977 1.896-9.14-1.415-12.46l-8.25-8.274c-.56-.556-.678-1.215-.679-1.669 0-.38.09-1.108.7-1.717l12.892-12.886c.611-.61 1.34-.702 1.724-.702h.003c.457.001 1.119.119 1.71.714l8.132 8.1c3.341 3.327 8.538 3.897 12.516 1.373 8.24-5.224 17.265-9.008 26.823-11.245 4.56-1.067 7.785-5.135 7.785-9.819v-11.526c0-1.319 1.104-2.434 2.411-2.434h18.249c1.323 0 2.441 1.115 2.441 2.434v11.356c0 4.725 3.28 8.816 7.893 9.843 9.595 2.137 18.749 5.911 27.208 11.218 3.975 2.492 9.148 1.916 12.476-1.398l8.223-8.19c.558-.561 1.219-.679 1.676-.68h.003c.384 0 1.113.092 1.723.702l12.893 12.885c.61.61.7 1.338.7 1.718-.001.454-.119 1.113-.712 1.702l-8.161 8.185c-3.323 3.333-3.899 8.521-1.388 12.501 5.221 8.277 8.977 17.341 11.165 26.939 1.046 4.588 5.126 7.843 9.833 7.843h11.476c1.3 0 2.441 1.125 2.441 2.405z" fill="#000000" data-original="#000000" class=""></path><path xmlns="http://www.w3.org/2000/svg" d="m383.187 309.652c-33.982 0-61.628 27.634-61.628 61.601 0 33.951 27.646 61.573 61.628 61.573 33.967 0 61.6-27.621 61.6-61.573 0-33.966-27.633-61.601-61.6-61.601zm0 103.005c-22.86 0-41.459-18.574-41.459-41.404 0-22.846 18.599-41.432 41.459-41.432 22.845 0 41.431 18.586 41.431 41.432 0 22.83-18.587 41.404-41.431 41.404z" fill="#000000" data-original="#000000" class=""></path><path xmlns="http://www.w3.org/2000/svg" d="m151.454 382.778h-.198c-5.569 0-10.084 4.515-10.084 10.084s4.515 10.084 10.084 10.084h.198c5.569 0 10.084-4.515 10.084-10.084s-4.515-10.084-10.084-10.084z" fill="#000000" data-original="#000000" class=""></path></g></svg>